{
    "accessors" : [
        {
            "bufferView" : 0, 
            "componentType" : 5125, 
            "count" : 67953, 
            "max" : [
                67952
            ], 
            "min" : [
                0
            ], 
            "type" : "SCALAR"
        }, 
        {
            "bufferView" : 1, 
            "componentType" : 5126, 
            "count" : 67953, 
            "max" : [
                4.430131912231445, 
                -5.009727954864502, 
                4.169833183288574
            ], 
            "min" : [
                -5.287506103515625, 
                -12.220463752746582, 
                -3.621320962905884
            ], 
            "type" : "VEC3"
        }, 
        {
            "bufferView" : 2, 
            "componentType" : 5126, 
            "count" : 67953, 
            "max" : [
                0.9998611807823181, 
                0.9998350739479065, 
                0.7541521787643433
            ], 
            "min" : [
                -0.9999892711639404, 
                -0.9717743992805481, 
                -0.9998645782470703
            ], 
            "type" : "VEC3"
        }, 
        {
            "bufferView" : 3, 
            "componentType" : 5126, 
            "count" : 67953, 
            "max" : [
                1.0, 
                0.9986534714698792, 
                0.9986693859100342, 
                1.0
            ], 
            "min" : [
                -0.9999553561210632, 
                -0.9994815587997437, 
                -0.9998792409896851, 
                1.0
            ], 
            "type" : "VEC4"
        }, 
        {
            "bufferView" : 4, 
            "componentType" : 5126, 
            "count" : 67953, 
            "max" : [
                0.9975759983062744, 
                0.9988779999548569
            ], 
            "min" : [
                0.0, 
                0.0004220008850097656
            ], 
            "type" : "VEC2"
        }
    ], 
    "asset" : {
        "generator" : "Khronos Blender glTF 2.0 exporter", 
        "version" : "2.0"
    }, 
    "bufferViews" : [
        {
            "buffer" : 0, 
            "byteLength" : 271812, 
            "byteOffset" : 0, 
            "target" : 34963
        }, 
        {
            "buffer" : 0, 
            "byteLength" : 815436, 
            "byteOffset" : 271812, 
            "target" : 34962
        }, 
        {
            "buffer" : 0, 
            "byteLength" : 815436, 
            "byteOffset" : 1087248, 
            "target" : 34962
        }, 
        {
            "buffer" : 0, 
            "byteLength" : 1087248, 
            "byteOffset" : 1902684, 
            "target" : 34962
        }, 
        {
            "buffer" : 0, 
            "byteLength" : 543624, 
            "byteOffset" : 2989932, 
            "target" : 34962
        }
    ], 
    "buffers" : [
        {
            "byteLength" : 3533556, 
            "uri" : "Hanstastenen.bin"
        }
    ], 
    "cameras" : [
        {
            "name" : "Camera", 
            "perspective" : {
                "aspectRatio" : 1.7777777777777777, 
                "yfov" : 0.5033799372418416, 
                "zfar" : 100.0, 
                "znear" : 0.10000000149011612
            }, 
            "type" : "perspective"
        }
    ], 
    "images" : [
        {
            "uri" : "hanstastenen1024.png"
        }
    ], 
    "materials" : [
        {
            "alphaMode" : "BLEND", 
            "name" : "hanstastenen1024", 
            "pbrMetallicRoughness" : {
                "baseColorTexture" : {
                    "index" : 0
                }, 
                "metallicFactor" : 0.0
            }
        }
    ], 
    "meshes" : [
        {
            "name" : "hanstastenen1024", 
            "primitives" : [
                {
                    "attributes" : {
                        "NORMAL" : 2, 
                        "POSITION" : 1, 
                        "TANGENT" : 3, 
                        "TEXCOORD_0" : 4
                    }, 
                    "indices" : 0, 
                    "material" : 0
                }
            ]
        }
    ], 
    "nodes" : [
        {
            "camera" : 0, 
            "name" : "Correction_Camera", 
            "rotation" : [
                -0.7071067690849304, 
                -0.0, 
                0.0, 
                0.7071067690849304
            ]
        }, 
        {
            "children" : [
                0
            ], 
            "name" : "Camera", 
            "rotation" : [
                0.483536034822464, 
                0.33687159419059753, 
                -0.20870360732078552, 
                0.7804827094078064
            ], 
            "translation" : [
                7.481131553649902, 
                5.34366512298584, 
                6.5076398849487305
            ]
        }, 
        {
            "mesh" : 0, 
            "name" : "hanstastenen1024", 
            "rotation" : [
                0.6075984239578247, 
                -0.09167569130659103, 
                0.08245436102151871, 
                0.7846152186393738
            ], 
            "scale" : [
                1.0, 
                0.9999999403953552, 
                0.9999999403953552
            ], 
            "translation" : [
                0.0, 
                5.1821136474609375, 
                8.777983665466309
            ]
        }, 
        {
            "name" : "Lamp", 
            "rotation" : [
                0.16907575726509094, 
                0.7558802962303162, 
                -0.27217137813568115, 
                0.570947527885437
            ], 
            "scale" : [
                1.0, 
                1.0, 
                0.9999999403953552
            ], 
            "translation" : [
                4.076245307922363, 
                5.903861999511719, 
                -1.0054539442062378
            ]
        }
    ], 
    "samplers" : [
        {}
    ], 
    "scene" : 0, 
    "scenes" : [
        {
            "name" : "Scene", 
            "nodes" : [
                2, 
                3, 
                1
            ]
        }
    ], 
    "textures" : [
        {
            "sampler" : 0, 
            "source" : 0
        }
    ]
}
